<?xml version="1.0" encoding="utf-8"?>
<!-- Generator: Adobe Illustrator 25.2.3, SVG Export Plug-In . SVG Version: 6.00 Build 0)  -->
<svg version="1.1" xmlns="http://www.w3.org/2000/svg" xmlns:xlink="http://www.w3.org/1999/xlink" x="0px" y="0px"
	 viewBox="0 0 433.58 458.42" style="enable-background:new 0 0 433.58 458.42;" xml:space="preserve">
<style type="text/css">
	.st0{fill:#050505;}
	.st1{fill:#BCBEC0;}
	.st2{fill:#9BCE8D;}
	.st3{fill:#AEE8A6;}
	.st4{fill:#B97262;}
	.st5{fill:#101011;}
	.st6{fill:#4B843D;}
</style>
<g id="background">
</g>
<g id="shadow">
</g>
<g id="object">
	<g>
		<g>
			<polygon class="st0" points="169.78,428.47 168.77,436.28 183.39,443.12 192.2,439.29 185.4,430.48 170.78,420.66 			"/>
			<g>
				<polygon class="st1" points="169.28,425.85 180.55,326.25 166.99,214.76 170.04,191.04 230.61,188.74 232.8,227.34 
					222.63,326.41 184.38,430.94 				"/>
			</g>
			<polygon class="st2" points="236.3,78.54 266.76,86.84 302,149.28 285.31,164.73 261.82,136.91 			"/>
			<g>
				<polygon class="st1" points="275.06,199.9 275.22,300.41 254.98,429.79 240.42,429.64 232.42,309.99 213.69,190.24 				"/>
				<polygon class="st0" points="240.45,435.78 256.11,440.83 264.07,436.02 256.27,428.07 240.52,427.91 				"/>
			</g>
			<g>
				<path class="st3" d="M160.73,234.08c0.14-4.36,0.38-7.99,0.42-9.29c0.31-11.68,1.35-23.34,2.82-34.94
					c1.31-10.4,2.96-36.2,4.74-46.53c1.47-8.53,6.59-29.82,10.29-37.73c9.2-19.68,6.36-21.49,46.76-27.34
					c17.71-2.56,21.89,8.47,36.37,21.16c1.43,1.25,1.35,8.7,1.68,10.68c0.58,3.48,1.21,6.94,1.92,10.4
					c0.56,2.71,1.18,5.42,1.88,8.11l0,0c0,0,12.15,55.3,20.19,67.05c8.04,11.74,24.64,28.16-3.13,38.19c-4.92,1.59-9.87,3.1-15,3.91
					c0,0-22.71-2.52-34.39-2.44c-10.76,0.08-21.56,1.17-32.14,2.99c-7.07,1.18-14.29,2.9-20.62,6.2
					c-6.04,3.15-10.39,7.79-16.52,11.05c-0.58,0.31-1.22,0.63-1.88,0.54C160.6,255.61,160.43,243.25,160.73,234.08z"/>
			</g>
			<g>
				<path class="st4" d="M225.79,83.8c-2.04,1.01-6.85,1.37-11.87-0.6c-1.01-0.4-1.69-1.37-1.68-2.46c0.04-3.05,0.29-6.09,0.73-9.11
					c-3.76-1.32-8.11-3.31-8.77-7.24c-0.21-1.24,0.01-2.51,0.22-3.74c0.88-5.12,1.77-10.24,2.65-15.36
					c0.31-1.77,0.63-3.59,1.59-5.11c1.69-2.66,4.97-3.83,8.08-4.37c7.93-1.38,16.57,0.34,22.71,5.53c1.64,1.38,3.12,3.04,3.84,5.06
					c1.11,3.11,0.28,6.54-0.56,9.73c-0.77,2.95-1.55,5.9-2.32,8.84c-0.89,3.39-2.18,7.24-5.44,8.52c-1.73,0.68-3.78,0.48-5.35,1.48
					C226.86,76.73,227.23,80.85,225.79,83.8z"/>
				<path class="st5" d="M271.55,34.22c0.78-1.28,1.62-2.51,2.56-3.67c2.03-2.51,4.54-4.65,6.17-7.44c1.64-2.78,2.21-6.55,0.25-9.11
					c-1.27-1.65-3.32-2.48-5.32-3.07c-6.58-1.94-13.69-2.07-20.34-0.38c-6.33,1.61-12,4.28-18.38,1.9
					c-5.99-2.24-10.32-1.33-16.58,0.91c-6.78,2.42-15.87,2.99-22.01,6.4c-2.56,1.43-4.61,3.65-6.2,6.11
					c-5.52,8.52-5.55,20.28-0.07,28.83c1.23,1.92,2.7,3.67,4.24,5.35c3.2,3.47,7.02,7.75,11.42,9.03c0.1-3.93-3.48-16.34-0.46-19.56
					c4.79-5.12,15.64-3.33,21.58-2.07c6.49,1.37,12.27,5.97,18.7,6.95c4.63,0.71,10.54-1.56,14.47-3.96
					C266.44,47.5,268.7,38.88,271.55,34.22z"/>
			</g>
			<polygon class="st2" points="192.2,85.81 166.99,107.9 138.87,167 174.39,209.25 180.5,185.62 			"/>
		</g>
	</g>
	<g>
		<g>
			<g>
				<polygon class="st6" points="364.95,107.93 53.35,131.39 216.47,216.79 				"/>
				<path class="st6" d="M43.58,138.55l15.11,200.66l292.1-21.99c22.09-1.66,38.56-22.15,36.78-45.77l-11.89-157.91L217.43,229.57
					L43.58,138.55z"/>
			</g>
		</g>
	</g>
	<polygon class="st4" points="143.98,128.46 151.36,118.6 166.35,115.69 174.42,123.74 160.13,138.62 	"/>
	<polygon class="st4" points="263.26,114.2 270.64,104.35 285.63,101.43 293.7,109.49 279.41,124.37 	"/>
</g>
</svg>
